<svg xmlns="http://www.w3.org/2000/svg" viewBox="0 0 24 24" fill="none" stroke="currentColor" stroke-width="2" stroke-linecap="round" stroke-linejoin="round">
  <style>
    path {
      stroke: #8B5A3C;
    }
    @media (prefers-color-scheme: dark) {
      path {
        stroke: #A0704B;
      }
    }
  </style>
  <path d="M10 2v2" />
  <path d="M14 2v2" />
  <path d="M16 8a1 1 0 0 1 1 1v8a4 4 0 0 1-4 4H7a4 4 0 0 1-4-4V9a1 1 0 0 1 1-1h12Z" />
  <path d="M6 2v2" />
  <path d="M17 12h2a2 2 0 0 1 2 2v1a2 2 0 0 1-2 2h-2" />
</svg>
